<svg xmlns="http://www.w3.org/2000/svg" viewBox="0 0 325.31 74.58"><title>oneplus-logo</title><path d="M204.09,262c0-7.31-3.37-13.12-10.12-13.12s-10.31,5.81-10.31,13.12S187,275.11,194,275.11c6.93-.19,10.12-5.81,10.12-13.12m-27.92,0c0-11.06,6.93-19.3,17.8-19.3s17.8,8.25,17.8,19.3-6.93,19.11-17.8,19.11-17.8-8.06-17.8-19.11m42-18.55h7.68l12.37,20.61c1.12,2.06,2.62,5.25,2.62,5.25H241s-.19-3.75-.19-6.37V243.44h7.31v36.92h-7.31l-12.74-20.43c-1.12-1.87-2.62-5.06-2.62-5.06h-.19s.19,3.94.19,6.37v19.11h-7.31Zm38.23,0h27.17v6.18H263.87v8.25h17.24v6.18H263.87V274h19.86v6.37H256.37Zm42.35,17.43h7.68c3.94,0,6-2.25,6-5.43,0-3.37-2.25-5.43-5.81-5.43h-7.87ZM291,243.44h16.3c4.31,0,7.5,1.31,9.74,3.37a11.89,11.89,0,0,1,3.37,8.43c0,6.93-4.68,11.62-12.37,11.62h-9v13.3h-7.68V243.44Zm34.67,0h7.5V274h17.24v6.37H325.71Zm28.86,24.92V243.44h7.5v25.11c0,3.75,1.87,6.56,6.93,6.56,4.68,0,6.93-2.81,6.93-6.56V243.44h7.5v25.11c0,7.87-4.87,12.56-14.24,12.56-9.74-.19-14.62-4.68-14.62-12.74m34.1.56H396c.56,4.5,3,6.18,8.25,6.18,3.75,0,7.12-1.31,7.12-4.68,0-3.56-3.56-4.31-9.18-5.62-6.56-1.5-12.74-3.19-12.74-10.87,0-7.31,6-11.06,14.05-11.06,8.25,0,13.68,4.12,14.24,11.43H410.6c-.37-3.75-3.37-5.62-7.12-5.62-3.94,0-6.75,1.69-6.75,4.31,0,3,2.62,3.94,8.06,5.06,7.68,1.69,13.87,3.37,13.87,11.43,0,7.5-6,11.62-14.43,11.62-9.74,0-15.37-4.5-15.55-12.18M93.35,230.33v63h63v-36h-6.93v29h-49.1V237.45h29v-7.12Zm56-11.62v11.62H137.57v7.12h11.81v11.62h6.93V237.45h11.62v-7.12H156.31V218.71Z" transform="translate(-93.35 -218.71)" style="fill:#f50514"/><path d="M129.32,277V246.26h-6.18a6,6,0,0,1-1.87,4.68,7.54,7.54,0,0,1-4.87,1.31h-.75v5.06h6.56V277Z" transform="translate(-93.35 -218.71)" style="fill:#f50514"/></svg>